<svg xmlns="http://www.w3.org/2000/svg" viewBox="0 0 100 100" width="100" height="100">
  <defs>
    <linearGradient id="bg" x1="0" y1="0" x2="1" y2="1">
      <stop offset="0%" stop-color="#17151c"/>
      <stop offset="100%" stop-color="#0a0a0d"/>
    </linearGradient>
  </defs>
  <rect x="4" y="4" width="92" height="92" rx="24" fill="url(#bg)"/>
  <rect x="4" y="4" width="92" height="92" rx="24" fill="none" stroke="#f2a93b" stroke-width="3"/>
  <!-- 4-point sparkle -->
  <path fill="#f2a93b"
    d="M50 10
       C55 30 56 34 58 38
       C74 42 78 44 90 50
       C78 56 74 58 58 62
       C56 66 55 70 50 90
       C45 70 44 66 42 62
       C26 58 22 56 10 50
       C22 44 26 42 42 38
       C44 34 45 30 50 10 Z"/>
</svg>